<?xml version="1.0" encoding="UTF-8"?>
<!-- Generator: visioncortex VTracer -->
<svg id="svg" version="1.1" xmlns="http://www.w3.org/2000/svg" style="display: block;" viewBox="0 0 500 500"><path d="M0 0 C22.35936341 -0.03504919 44.71723985 0.06762974 67.07608628 0.20192909 C71.87523945 0.23057117 76.67439828 0.25823305 81.47355652 0.28601074 C90.51074962 0.33846122 99.54793751 0.39175925 108.58512372 0.4453826 C118.8951488 0.50651567 129.20517951 0.5666722 139.51521075 0.62675762 C160.67681349 0.75010579 181.83840905 0.87464484 203 1 C202.67 3.31 202.34 5.62 202 8 C197.71936972 15.99428967 192.85625267 22.9211966 186.94140625 29.796875 C183.16499018 34.08238539 178.50496513 37.51143123 174 41 C164.30306016 47.80704857 154.07084308 53.68693521 143.09765625 58.19140625 C142.40542969 58.45824219 141.71320313 58.72507813 141 59 C140.01 59 139.02 59 138 59 C138 45.14 138 31.28 138 17 C138.99 16.34 139.98 15.68 141 15 C94.14 14.67 47.28 14.34 -1 14 C-1 9.71 -1 5.42 -1 1 C-0.67 0.67 -0.34 0.34 0 0 Z M-87 2 C-80.7347055 2.52420807 -74.5407944 3.16893244 -68.32470703 4.10424805 C-56.22558815 5.91989994 -44.22194921 6.65721806 -32 7 C-31.34 5.68 -30.68 4.36 -30 3 C-29.67 2.67 -29.34 2.34 -29 2 C-23.72 2 -18.44 2 -13 2 C-12.67 19.49 -12.34 36.98 -12 55 C-13.32 55.33 -14.64 55.66 -16 56 C-28.6955865 51.85193708 -40.44496242 46.89483632 -52.05859375 40.25 C-59.71071454 35.56104088 -66.73349692 30.04390292 -73.24609375 23.87109375 C-79.01761799 18.12279496 -81.79134087 13.52361875 -87 6 C-87 4.68 -87 3.36 -87 2 Z M0 22 C10.04543906 21.89176258 20.02370613 22.32311641 30.0546875 22.83984375 C31.80411146 22.92746014 33.5535524 23.01473814 35.30300903 23.10169983 C40.8271754 23.3769822 46.3510953 23.65702323 51.875 23.9375 C59.10140406 24.30398009 66.3279201 24.66809441 73.5546875 25.02734375 C74.8681226 25.09274416 74.8681226 25.09274416 76.20809174 25.15946579 C92.13324046 25.94816816 108.06164662 26.54856687 124 27 C124.99 27.495 124.99 27.495 126 28 C126 32.62 126 37.24 126 42 C103.23 42 80.46 42 57 42 C56.34 44.97 55.68 47.94 55 51 C54.40683212 52.88793711 53.7754974 54.76474418 53.08984375 56.62109375 C52.73986328 57.57564453 52.38988281 58.53019531 52.02929688 59.51367188 C51.66900391 60.47853516 51.30871094 61.44339844 50.9375 62.4375 C50.57333984 63.42943359 50.20917969 64.42136719 49.83398438 65.44335938 C47.18003247 72.63993506 47.18003247 72.63993506 46 75 C48.64 75.33 51.28 75.66 54 76 C54.66 76.99 55.32 77.98 56 79 C56 82.3 56 85.6 56 89 C59.3 89 62.6 89 66 89 C65.505 90.485 65.505 90.485 65 92 C62.36 93.65 59.72 95.3 57 97 C56.67 97.66 56.34 98.32 56 99 C62.93 98.01 62.93 98.01 70 97 C72.64 95.35 75.28 93.7 78 92 C79.65 89.36 81.3 86.72 83 84 C76.07 84 69.14 84 62 84 C61.01 83.67 60.02 83.34 59 83 C59.6167263 76.3799506 61.17762013 70.34124317 63.0625 64 C63.34416016 63.03449219 63.62582031 62.06898438 63.91601562 61.07421875 C64.60522667 58.71454704 65.30185394 56.35704359 66 54 C72.37622316 52.85331145 78.60615039 52.87210433 85.05859375 52.90234375 C86.20288345 52.9037587 87.34717316 52.90517365 88.52613831 52.90663147 C92.16328601 52.91220699 95.80037105 52.92475502 99.4375 52.9375 C101.9108064 52.94251816 104.38411377 52.94708052 106.85742188 52.95117188 C112.90497188 52.96216841 118.95247533 52.97941619 125 53 C125.33 53.33 125.66 53.66 126 54 C126 57.63 126 61.26 126 65 C119.07 70.94 119.07 70.94 112 77 C106.22274413 85.93669268 100.54897264 94.91986296 95 104 C91.7 106.97 88.4 109.94 85 113 C78.8997114 115.86186379 73.5208674 118.13689503 67 120 C61.72 120 56.44 120 51 120 C46.71 118.68 42.42 117.36 38 116 C34.7 113.69 31.4 111.38 28 109 C27.01 107.35 26.02 105.7 25 104 C24.68546875 102.94941406 24.3709375 101.89882813 24.046875 100.81640625 C21.42842766 92.2275835 18.8964273 84.05623235 14.41796875 76.23828125 C12.97089233 73.80841288 11.50110789 71.39676894 10 69 C8.73113036 67.87278564 7.45982438 66.74831342 6.1875 65.625 C5.47980469 64.99851563 4.77210938 64.37203125 4.04296875 63.7265625 C1.91196181 61.859401 1.91196181 61.859401 -1 60 C-1 47.79 -1 35.58 -1 23 C-0.67 22.67 -0.34 22.34 0 22 Z M30 120 C30.87140625 120.51949219 31.7428125 121.03898437 32.640625 121.57421875 C40.23467783 126.02052025 47.77510716 129.86670749 56 133 C58.31 133.33 60.62 133.66 63 134 C72.14255725 130.75297067 80.56535902 126.79021345 89 122 C89.66 121.34 90.32 120.68 91 120 C92.32 120.33 93.64 120.66 95 121 C96.98 124.96 98.96 128.92 101 133 C107.93 133.495 107.93 133.495 115 134 C118.96 136.64 122.92 139.28 127 142 C128.63560804 150.17804022 128 158.66000266 128 167 C84.44 167 40.88 167 -4 167 C-4 160.47787006 -3.97379457 154.26795104 -3.5 147.8125 C-3.4071875 146.51957031 -3.314375 145.22664063 -3.21875 143.89453125 C-3.11046875 142.46173828 -3.11046875 142.46173828 -3 141 C0.63 139.02 4.26 137.04 8 135 C14.435 134.505 14.435 134.505 21 134 C22.65 132.35 24.3 130.7 26 129 C27.32 126.03 28.64 123.06 30 120 Z " transform="translate(190,166)" style="fill: #0C83BF;"/></svg>