<?xml version="1.0" encoding="UTF-8"?>
<!-- Generator: visioncortex VTracer -->
<svg id="svg" version="1.1" xmlns="http://www.w3.org/2000/svg" style="display: block;" viewBox="0 0 500 500"><path d="M0 0 C10.04543906 -0.10823742 20.02370613 0.32311641 30.0546875 0.83984375 C31.80411146 0.92746014 33.5535524 1.01473814 35.30300903 1.10169983 C40.8271754 1.3769822 46.3510953 1.65702323 51.875 1.9375 C59.10140406 2.30398009 66.3279201 2.66809441 73.5546875 3.02734375 C74.8681226 3.09274416 74.8681226 3.09274416 76.20809174 3.15946579 C92.13324046 3.94816816 108.06164662 4.54856687 124 5 C124.99 5.495 124.99 5.495 126 6 C126 10.62 126 15.24 126 20 C103.23 20 80.46 20 57 20 C56.34 22.97 55.68 25.94 55 29 C54.40683212 30.88793711 53.7754974 32.76474418 53.08984375 34.62109375 C52.73986328 35.57564453 52.38988281 36.53019531 52.02929688 37.51367188 C51.66900391 38.47853516 51.30871094 39.44339844 50.9375 40.4375 C50.57333984 41.42943359 50.20917969 42.42136719 49.83398438 43.44335938 C47.18003247 50.63993506 47.18003247 50.63993506 46 53 C48.64 53.33 51.28 53.66 54 54 C54.66 54.99 55.32 55.98 56 57 C56 60.3 56 63.6 56 67 C59.3 67 62.6 67 66 67 C65.505 68.485 65.505 68.485 65 70 C62.36 71.65 59.72 73.3 57 75 C56.67 75.66 56.34 76.32 56 77 C62.93 76.01 62.93 76.01 70 75 C72.64 73.35 75.28 71.7 78 70 C79.65 67.36 81.3 64.72 83 62 C76.07 62 69.14 62 62 62 C61.01 61.67 60.02 61.34 59 61 C59.6167263 54.3799506 61.17762013 48.34124317 63.0625 42 C63.34416016 41.03449219 63.62582031 40.06898438 63.91601562 39.07421875 C64.60522667 36.71454704 65.30185394 34.35704359 66 32 C72.37622316 30.85331145 78.60615039 30.87210433 85.05859375 30.90234375 C86.20288345 30.9037587 87.34717316 30.90517365 88.52613831 30.90663147 C92.16328601 30.91220699 95.80037105 30.92475502 99.4375 30.9375 C101.9108064 30.94251816 104.38411377 30.94708052 106.85742188 30.95117188 C112.90497188 30.96216841 118.95247533 30.97941619 125 31 C125.33 31.33 125.66 31.66 126 32 C126 35.63 126 39.26 126 43 C119.07 48.94 119.07 48.94 112 55 C106.22274413 63.93669268 100.54897264 72.91986296 95 82 C91.7 84.97 88.4 87.94 85 91 C78.8997114 93.86186379 73.5208674 96.13689503 67 98 C61.72 98 56.44 98 51 98 C46.71 96.68 42.42 95.36 38 94 C34.7 91.69 31.4 89.38 28 87 C27.01 85.35 26.02 83.7 25 82 C24.68546875 80.94941406 24.3709375 79.89882813 24.046875 78.81640625 C21.42842766 70.2275835 18.8964273 62.05623235 14.41796875 54.23828125 C12.97089233 51.80841288 11.50110789 49.39676894 10 47 C8.73113036 45.87278564 7.45982438 44.74831342 6.1875 43.625 C5.47980469 42.99851563 4.77210938 42.37203125 4.04296875 41.7265625 C1.91196181 39.859401 1.91196181 39.859401 -1 38 C-1 25.79 -1 13.58 -1 1 C-0.67 0.67 -0.34 0.34 0 0 Z " transform="translate(190,188)" style="fill: #0C8AC6;"/><path d="M0 0 C0.87140625 0.51949219 1.7428125 1.03898437 2.640625 1.57421875 C10.23467783 6.02052025 17.77510716 9.86670749 26 13 C28.31 13.33 30.62 13.66 33 14 C42.14255725 10.75297067 50.56535902 6.79021345 59 2 C59.66 1.34 60.32 0.68 61 0 C62.32 0.33 63.64 0.66 65 1 C66.98 4.96 68.96 8.92 71 13 C77.93 13.495 77.93 13.495 85 14 C88.96 16.64 92.92 19.28 97 22 C98.63560804 30.17804022 98 38.66000266 98 47 C54.44 47 10.88 47 -34 47 C-34 40.47787006 -33.97379457 34.26795104 -33.5 27.8125 C-33.4071875 26.51957031 -33.314375 25.22664063 -33.21875 23.89453125 C-33.11046875 22.46173828 -33.11046875 22.46173828 -33 21 C-29.37 19.02 -25.74 17.04 -22 15 C-15.565 14.505 -15.565 14.505 -9 14 C-7.35 12.35 -5.7 10.7 -4 9 C-2.68 6.03 -1.36 3.06 0 0 Z " transform="translate(220,286)" style="fill: #0A64A5;"/><path d="M0 0 C22.35936341 -0.03504919 44.71723985 0.06762974 67.07608628 0.20192909 C71.87523945 0.23057117 76.67439828 0.25823305 81.47355652 0.28601074 C90.51074962 0.33846122 99.54793751 0.39175925 108.58512372 0.4453826 C118.8951488 0.50651567 129.20517951 0.5666722 139.51521075 0.62675762 C160.67681349 0.75010579 181.83840905 0.87464484 203 1 C202.67 3.31 202.34 5.62 202 8 C197.71936972 15.99428967 192.85625267 22.9211966 186.94140625 29.796875 C183.16499018 34.08238539 178.50496513 37.51143123 174 41 C164.30306016 47.80704857 154.07084308 53.68693521 143.09765625 58.19140625 C142.40542969 58.45824219 141.71320313 58.72507813 141 59 C140.01 59 139.02 59 138 59 C138 45.14 138 31.28 138 17 C138.99 16.34 139.98 15.68 141 15 C94.14 14.67 47.28 14.34 -1 14 C-1 9.71 -1 5.42 -1 1 C-0.67 0.67 -0.34 0.34 0 0 Z " transform="translate(190,166)" style="fill: #0D87C3;"/><path d="M0 0 C6.2652945 0.52420807 12.4592056 1.16893244 18.67529297 2.10424805 C30.77441185 3.91989994 42.77805079 4.65721806 55 5 C55.66 3.68 56.32 2.36 57 1 C57.33 0.67 57.66 0.34 58 0 C63.28 0 68.56 0 74 0 C74.33 17.49 74.66 34.98 75 53 C73.68 53.33 72.36 53.66 71 54 C58.3044135 49.85193708 46.55503758 44.89483632 34.94140625 38.25 C27.28928546 33.56104088 20.26650308 28.04390292 13.75390625 21.87109375 C7.98238201 16.12279496 5.20865913 11.52361875 0 4 C0 2.68 0 1.36 0 0 Z " transform="translate(103,168)" style="fill: #12BDF2;"/><path d="M0 0 C5 1.66666667 10 3.33333333 15 5 C25.82914263 6.68644897 36.48704829 7.39107847 47.4375 7.625 C48.94376953 7.66367188 50.45003906 7.70234375 52.00195312 7.7421875 C55.66785596 7.83528979 59.33376845 7.92111493 63 8 C63.16754415 10.53110667 63.33237911 13.06239275 63.49609375 15.59375 C63.58818115 17.00333984 63.68026855 18.41292969 63.77514648 19.86523438 C64.0502798 24.92458047 64.07035042 29.9347699 64 35 C62.02 35.495 62.02 35.495 60 36 C47.3044135 31.85193708 35.55503758 26.89483632 23.94140625 20.25 C17.14638895 16.08624472 11.05605125 11.1658 5 6 C3.35 4.02 1.7 2.04 0 0 Z " transform="translate(114,186)" style="fill: #0C69A9;"/></svg>